# Blender v2.76 (sub 0) OBJ File: 'curb.blend'
# www.blender.org
mtllib curb.mtl
o Cube
v 0.250000 -0.000109 1.000000
v 0.250000 -0.000109 0.000000
v 0.250000 0.124891 1.000000
v 0.250000 0.124891 -0.000000
v 0.500000 0.124891 0.000000
v 0.500000 0.124891 1.000000
v 0.250000 -0.000109 1.000000
v 0.250000 -0.000109 0.000000
v 0.250000 -0.000109 1.000000
v 0.250000 -0.000109 0.000000
v 0.250000 -0.000109 1.000000
v 0.250000 -0.000109 0.000000
v -0.000000 -0.000109 1.000000
v 0.000000 -0.000109 0.000000
vt 0.520000 1.000000
vt -0.480000 1.000000
vt -0.480000 0.000000
vt 0.520000 -0.000000
vt 0.000000 0.000000
vt -0.000000 1.000000
vt -1.000000 1.000000
vt -1.000000 0.000000
vt 0.000100 0.999900
vt 0.000100 0.000100
vt 0.999900 0.000100
vt 0.999900 0.999900
vn 0.000000 1.000000 0.000000
vn -1.000000 -0.000000 -0.000000
vn 0.000000 0.000000 1.000000
usemtl Material
s off
f 3/1/1 6/2/1 5/3/1 4/4/1
f 1/5/2 3/6/2 4/7/2 2/8/2
f 1/5/3 2/5/3 8/5/3 7/5/3
f 7/5/3 8/5/3 10/5/3 9/5/3
f 9/5/3 10/5/3 12/5/3 11/5/3
f 11/9/1 12/10/1 14/11/1 13/12/1
